# xmcd CD database file
#
# Track frame offsets:
#	150
#	18450
#	35745
#	47310
#	67642
#	89597
#	104230
#	119940
#	137247
#	155810
#	172175
#	189512
#
# Disc length: 2777 seconds
#
# Revision: 1
# Processed by: cddbd v1.4PL0 Copyright (c) Steve Scherf et al.
# Submitted via: CDex 1.40Beta8
#
DISCID=b30ad70c
DTITLE=Billy Gorlt - Billy Gorlt and his Swing Combo N° 2
DYEAR=1987
DGENRE=Blues
TTITLE0=Avalon (Rose,Jolson, De Sylva)
TTITLE1=Your Love Was New (Billy Gorlt)
TTITLE2=Wild Cat Blues (Th.Waller, C.Williams)
TTITLE3=Do You Know Where You Go (Billy Gorlt)
TTITLE4=Träume, wenn Du einsam bist (Billy Gorlt)
TTITLE5=Oh, Lady Be Good (George and Ira Gershwin)
TTITLE6=Night Train (J.Forest)
TTITLE7=Rose Room (Art Hickman)
TTITLE8=Forget About Me (Billy Gorlt)
TTITLE9=Honeysuckle Rose (Th.Waller, Andy Razaf)
TTITLE10=Meditation (Carlös Jobim Norman Gimbel)
TTITLE11=Please Don't Wait (Billy Gorlt
EXTD=YEAR: 1987 ID3G: 0
EXTT0=
EXTT1=
EXTT2=
EXTT3=
EXTT4=
EXTT5=
EXTT6=
EXTT7=
EXTT8=
EXTT9=
EXTT10=
EXTT11=
PLAYORDER=
